HIERARCHY
ROOT hips
{
  OFFSET 0 10.6860622 2.3727825e-15
  CHANNELS 6 Xposition Yposition Zposition Yrotation Xrotation Zrotation
  JOINT leftUpperLeg
  {
    OFFSET 0.6642549969 -0.9402397400000004 0
    CHANNELS 3 Yrotation Xrotation Zrotation
    JOINT leftLowerLeg
    {
      OFFSET 0 -3.997221335632195 0
      CHANNELS 3 Yrotation Xrotation Zrotation
      JOINT leftFoot
      {
        OFFSET -0.13777839790000004 -4.6145792000000005 -0.22186036399999998
        CHANNELS 3 Yrotation Xrotation Zrotation
        JOINT leftToes
        {
          OFFSET -0.03777410834999995 -0.9130806927000008 0.85230013
          CHANNELS 3 Yrotation Xrotation Zrotation
          End Site
          {
            OFFSET -0.03777410834999995 -0.9130806927000008 0.85230013
          }
        }
      }
    }
  }
  JOINT rightUpperLeg
  {
    OFFSET -0.6642778626 -0.9402397400000004 0
    CHANNELS 3 Yrotation Xrotation Zrotation
    JOINT rightLowerLeg
    {
      OFFSET 0 -3.997221452859387 0
      CHANNELS 3 Yrotation Xrotation Zrotation
      JOINT rightFoot
      {
        OFFSET 0.1377926176 -4.6145792000000005 -0.22185782299999995
        CHANNELS 3 Yrotation Xrotation Zrotation
        JOINT rightToes
        {
          OFFSET 0.037780746850000047 -0.9130806927000008 0.85230167
          CHANNELS 3 Yrotation Xrotation Zrotation
          End Site
          {
            OFFSET 0.037780746850000047 -0.9130806927000008 0.85230167
          }
        }
      }
    }
  }
  JOINT spine
  {
    OFFSET 0 0.13988381660000015 0
    CHANNELS 3 Yrotation Xrotation Zrotation
    JOINT chest
    {
      OFFSET 0 0.6191039003973773 0
      CHANNELS 3 Yrotation Xrotation Zrotation
      JOINT upperChest
      {
        OFFSET 0 0.9855186130586943 0
        CHANNELS 3 Yrotation Xrotation Zrotation
        JOINT leftShoulder
        {
          OFFSET 0.1807663869 1.5087829790000005 0
          CHANNELS 3 Yrotation Xrotation Zrotation
          JOINT leftUpperArm
          {
            OFFSET 0.5985063006419806 0 0
            CHANNELS 3 Yrotation Xrotation Zrotation
            JOINT leftLowerArm
            {
              OFFSET 2.2993332369501065 0 0
              CHANNELS 3 Yrotation Xrotation Zrotation
              JOINT leftHand
              {
                OFFSET 2.395047042602395 0 0
                CHANNELS 3 Yrotation Xrotation Zrotation
                JOINT leftIndexProximal
                {
                  OFFSET 0.5766295810000004 0.04556643899499946 0.17265095988184
                  CHANNELS 3 Yrotation Xrotation Zrotation
                  JOINT leftIndexIntermediate
                  {
                    OFFSET 0.2957229000000008 -0.019352197700001517 -0.007932640616999987
                    CHANNELS 3 Yrotation Xrotation Zrotation
                    JOINT leftIndexDistal
                    {
                      OFFSET 0.19008243099999922 -0.012484908149998475 -0.002786250786000012
                      CHANNELS 3 Yrotation Xrotation Zrotation
                      End Site
                      {
                        OFFSET 0.19008243099999922 -0.012484908149998475 -0.002786250786000012
                      }
                    }
                  }
                }
                JOINT leftMiddleProximal
                {
                  OFFSET 0.5834975091000001 0.0524350405149987 0.02204081888183999
                  CHANNELS 3 Yrotation Xrotation Zrotation
                  JOINT leftMiddleIntermediate
                  {
                    OFFSET 0.33880573540000003 -0.019871473270000717 -0.00000971183179999946
                    CHANNELS 3 Yrotation Xrotation Zrotation
                    JOINT leftMiddleDistal
                    {
                      OFFSET 0.20676022730000088 -0.012221336379999448 0.0001471936708000235
                      CHANNELS 3 Yrotation Xrotation Zrotation
                      End Site
                      {
                        OFFSET 0.20676022730000088 -0.012221336379999448 0.0001471936708000235
                      }
                    }
                  }
                }
                JOINT leftLittleProximal
                {
                  OFFSET 0.5344154683999995 -0.012880921405001189 -0.24414037221816004
                  CHANNELS 3 Yrotation Xrotation Zrotation
                  JOINT leftLittleIntermediate
                  {
                    OFFSET 0.21758961730000093 -0.011650919939999227 0.011893592810000034
                    CHANNELS 3 Yrotation Xrotation Zrotation
                    JOINT leftLittleDistal
                    {
                      OFFSET 0.1475273964999999 -0.008152365682999818 0.006001092492999946
                      CHANNELS 3 Yrotation Xrotation Zrotation
                      End Site
                      {
                        OFFSET 0.1475273964999999 -0.008152365682999818 0.006001092492999946
                      }
                    }
                  }
                }
                JOINT leftRingProximal
                {
                  OFFSET 0.5799399463000003 0.026911854694997794 -0.12150566991816003
                  CHANNELS 3 Yrotation Xrotation Zrotation
                  JOINT leftRingIntermediate
                  {
                    OFFSET 0.26167887460000006 -0.013480186499999602 0.010996293000000053
                    CHANNELS 3 Yrotation Xrotation Zrotation
                    JOINT leftRingDistal
                    {
                      OFFSET 0.17667108799999987 -0.008990287899999228 0.0055541023999999065
                      CHANNELS 3 Yrotation Xrotation Zrotation
                      End Site
                      {
                        OFFSET 0.17667108799999987 -0.008990287899999228 0.0055541023999999065
                      }
                    }
                  }
                }
                JOINT leftThumbProximal
                {
                  OFFSET 0.11018806699999972 -0.09448718900500053 0.17047963138184
                  CHANNELS 3 Yrotation Xrotation Zrotation
                  JOINT leftThumbIntermediate
                  {
                    OFFSET 0.31062601459999983 -0.08126270900000132 0.15443142000000007
                    CHANNELS 3 Yrotation Xrotation Zrotation
                    JOINT leftThumbDistal
                    {
                      OFFSET 0.21627175790000086 -0.08833193599999878 0.018771167799999988
                      CHANNELS 3 Yrotation Xrotation Zrotation
                      End Site
                      {
                        OFFSET 0.21627175790000086 -0.08833193599999878 0.018771167799999988
                      }
                    }
                  }
                }
              }
            }
          }
        }
        JOINT neck
        {
          OFFSET 0 1.5463305265074576 0
          CHANNELS 3 Yrotation Xrotation Zrotation
          JOINT head
          {
            OFFSET 0 0.8456443600000344 0
            CHANNELS 3 Yrotation Xrotation Zrotation
            JOINT leftEye
            {
              OFFSET 0.30408573140000006 0.5104519199999995 0.1276382305
              CHANNELS 3 Yrotation Xrotation Zrotation
              End Site
              {
                OFFSET 0.30408573140000006 0.5104519199999995 0.1276382305
              }
            }
            JOINT rightEye
            {
              OFFSET -0.30409491089999996 0.5104519199999995 0.1276379445
              CHANNELS 3 Yrotation Xrotation Zrotation
              End Site
              {
                OFFSET -0.30409491089999996 0.5104519199999995 0.1276379445
              }
            }
            JOINT jaw
            {
              OFFSET -3.155239131000001e-7 -0.11984121820000082 0.60178107
              CHANNELS 3 Yrotation Xrotation Zrotation
              End Site
              {
                OFFSET -3.155239131000001e-7 -0.11984121820000082 0.60178107
              }
            }
          }
        }
        JOINT rightShoulder
        {
          OFFSET -0.1807303465 1.5087829790000005 0
          CHANNELS 3 Yrotation Xrotation Zrotation
          JOINT rightUpperArm
          {
            OFFSET -0.5985063796536958 0 0
            CHANNELS 3 Yrotation Xrotation Zrotation
            JOINT rightLowerArm
            {
              OFFSET -2.2993322059002854 0 0
              CHANNELS 3 Yrotation Xrotation Zrotation
              JOINT rightHand
              {
                OFFSET -2.395045314457259 0 0
                CHANNELS 3 Yrotation Xrotation Zrotation
                JOINT rightIndexProximal
                {
                  OFFSET -0.5764487688300002 0.0441371204405987 0.17361932004999997
                  CHANNELS 3 Yrotation Xrotation Zrotation
                  JOINT rightIndexIntermediate
                  {
                    OFFSET -0.29573011380000047 -0.01934826376999843 -0.007698921482999974
                    CHANNELS 3 Yrotation Xrotation Zrotation
                    JOINT rightIndexDistal
                    {
                      OFFSET -0.19008373999999884 -0.012503266380000655 -0.0026365778999999897
                      CHANNELS 3 Yrotation Xrotation Zrotation
                      End Site
                      {
                        OFFSET -0.19008373999999884 -0.012503266380000655 -0.0026365778999999897
                      }
                    }
                  }
                }
                JOINT rightMiddleProximal
                {
                  OFFSET -0.5834852037300005 0.05211639405060153 0.02307162440000001
                  CHANNELS 3 Yrotation Xrotation Zrotation
                  JOINT rightMiddleIntermediate
                  {
                    OFFSET -0.33880114510000003 -0.019952774050000954 0.0002455003561999819
                    CHANNELS 3 Yrotation Xrotation Zrotation
                    JOINT rightMiddleDistal
                    {
                      OFFSET -0.20675694929999955 -0.012273788999999091 0.00030209124000002766
                      CHANNELS 3 Yrotation Xrotation Zrotation
                      End Site
                      {
                        OFFSET -0.20675694929999955 -0.012273788999999091 0.00030209124000002766
                      }
                    }
                  }
                }
                JOINT rightLittleProximal
                {
                  OFFSET -0.5346811737299992 -0.011214256288399227 -0.24363941305000003
                  CHANNELS 3 Yrotation Xrotation Zrotation
                  JOINT rightLittleIntermediate
                  {
                    OFFSET -0.21757715980000092 -0.011771559690000988 0.01201554387
                    CHANNELS 3 Yrotation Xrotation Zrotation
                    JOINT rightLittleDistal
                    {
                      OFFSET -0.1475201849000004 -0.00822055339600003 0.006082065407000015
                      CHANNELS 3 Yrotation Xrotation Zrotation
                      End Site
                      {
                        OFFSET -0.1475201849000004 -0.00822055339600003 0.006082065407000015
                      }
                    }
                  }
                }
                JOINT rightRingProximal
                {
                  OFFSET -0.5800810755299999 0.027657985680600072 -0.12066365025000003
                  CHANNELS 3 Yrotation Xrotation Zrotation
                  JOINT rightRingIntermediate
                  {
                    OFFSET -0.26166445029999974 -0.013623118409999302 0.011164098990000045
                    CHANNELS 3 Yrotation Xrotation Zrotation
                    JOINT rightRingDistal
                    {
                      OFFSET -0.17666387530000027 -0.009072900100000503 0.005668185599999959
                      CHANNELS 3 Yrotation Xrotation Zrotation
                      End Site
                      {
                        OFFSET -0.17666387530000027 -0.009072900100000503 0.005668185599999959
                      }
                    }
                  }
                }
                JOINT rightThumbProximal
                {
                  OFFSET -0.10997596379000074 -0.09577489355940072 0.16989765924999997
                  CHANNELS 3 Yrotation Xrotation Zrotation
                  JOINT rightThumbIntermediate
                  {
                    OFFSET -0.31036620999999986 -0.08229339117999834 0.15440884469999996
                    CHANNELS 3 Yrotation Xrotation Zrotation
                    JOINT rightThumbDistal
                    {
                      OFFSET -0.21631306399999906 -0.08825326400000111 0.018656797720000014
                      CHANNELS 3 Yrotation Xrotation Zrotation
                      End Site
                      {
                        OFFSET -0.21631306399999906 -0.08825326400000111 0.018656797720000014
                      }
                    }
                  }
                }
              }
            }
          }
        }
      }
    }
  }
}
MOTION
Frames: 8
Frame Time: 0.03333333333333333
0 11.682712981546562 0 0 0 0 0 0 -5.826343164929014 -0.3712483961610101 -3.6333298826370974 5.838118207697276 0 0 0 0 0 0 0 0 5.826343164929014 0.3712483961610101 -3.6333298826370974 -5.838118207697276 0 0 0 0 0 0 0 -4.610651315171937 0 0 3.0831277533083026 0 0 0 0 0 1.5275236235667615 0 0 0 0 0 0 0 0 0 0 0 0 0 0 0 0 0 0 0 0 0 0 0 0 0 0 0 0 0 0 0 0 0 0 0 0 0 0 0 0 0 0 0 0 0 0 0 0 0 0 0 0 0 0 0 0 1.5275236235667615 0 0 0 0 0 0 0 0 0 0 0 0 0 0 1.5275236235667615 0 0 0 0 0 0 0 0 0 0 0 0 0 0 0 0 0 0 0 0 0 0 0 0 0 0 0 0 0 0 0 0 0 0 0 0 0 0 0 0 0 0 0 0 0 0 0 0 0 0 0 0 0 0 0
0 -10.386017323533302 0 0 -90 0 0.47455056865536854 -0.9933824279699685 13.969803587090254 0.7144132639633732 6.517209376161326 3.886640863075053 2.3959397165843432 13.60013783127389 6.052984300663472 0 0 0 -13.83635004725888 -55.88867710078358 -13.96501122501976 -171.9082437255327 53.8947095256513 -167.74732708077065 -1.8278070857498423 18.67079535586416 -5.599626459011687 0 0 0 0 18.927457745865528 0 -0.6875376240611168 22.337634755913985 -0.3986482829029358 0 0 0 8.615746513576312 1.8479789763374102 0.8907658431622498 6.807780815043632 29.594470426738383 -75.1585239690339 -75.00284304833056 33.998487688640935 -0.0025197445137589243 -2.8513735774434754 23.436919075090522 -7.63582542954491 0 0 0 0 0 0 0 0 0 0 0 0 0 0 0 0 0 0 0 0 0 0 0 0 0 0 0 0 0 0 0 0 0 0 0 0 0 0 0 0 0 0 0 0 0 0 19.52587217553456 0 0 8.99856659418915 0 0 0 0 0 0 0 0 0 0 -8.619255327135386 1.8476827762986463 -0.8943543484208183 -6.8159848379891255 29.59560546933738 75.1383748363189 74.99735899869108 34.00071212629143 -0.00206144375390996 2.8468705339310736 23.437250349516916 7.63132420182974 0 0 0 0 0 0 0 0 0 0 0 0 0 0 0 0 0 0 0 0 0 0 0 0 0 0 0 0 0 0 0 0 0 0 0 0 0 0 0 0 0 0 0 0 0
0 -10.386017323533302 0 0 -90 0 0.47455056865536854 -0.9933824279699685 13.969803587090254 0.7144132639633732 6.517209376161326 3.886640863075053 2.3959397165843432 13.60013783127389 6.052984300663472 0 0 0 -13.83635004725888 -55.88867710078358 -13.96501122501976 -171.9082437255327 53.8947095256513 -167.74732708077065 -1.8278070857498423 18.67079535586416 -5.599626459011687 0 0 0 0 18.950660973897804 0 -0.6807786215267119 22.153288959786984 -0.3939432154673925 0 0 0 8.615746513576312 1.8479789763374102 0.8907658431622498 6.807780815043632 29.594470426738383 -75.1585239690339 -74.82468566925309 33.883789683580666 0.021647838764312363 -2.851374042139937 23.436920936180485 -7.635825890691672 0 0 0 0 0 0 0 0 0 0 0 0 0 0 0 0 0 0 0 0 0 0 0 0 0 0 0 0 0 0 0 0 0 0 0 0 0 0 0 0 0 0 0 0 0 0 19.52587217553456 0 0 8.692122329471147 0 0 0 0 0 0 0 0 0 0 -8.619255327135386 1.8476827762986463 -0.8943543484208183 -6.8159848379891255 29.59560546933738 75.1383748363189 74.83688819509426 33.885682019891064 -0.023834740031004973 2.8468705339310736 23.437250349516916 7.63132420182974 0 0 0 0 0 0 0 0 0 0 0 0 0 0 0 0 0 0 0 0 0 0 0 0 0 0 0 0 0 0 0 0 0 0 0 0 0 0 0 0 0 0 0 0 0
0 -10.386017323533302 0 0 -90 0 0.47455056865536854 -0.9933824279699685 13.969803587090254 0.7144132639633732 6.517209376161326 3.886640863075053 2.3959397165843432 13.60013783127389 6.052984300663472 0 0 0 -13.83635004725888 -55.88867710078358 -13.96501122501976 -171.9082437255327 53.8947095256513 -167.74732708077065 -1.8278070857498423 18.67079535586416 -5.599626459011687 0 0 0 0 18.97386562321119 0 -0.674044751167816 21.968941288899167 -0.3892677433790865 0 0 0 8.615746513576312 1.8479789763374102 0.8907658431622498 6.807780815043632 29.594470426738383 -75.1585239690339 -74.64682458735541 33.76903614948488 0.04535388003354921 -2.8513742744881676 23.436920936180485 -7.635826351838433 0 0 0 0 0 0 0 0 0 0 0 0 0 0 0 0 0 0 0 0 0 0 0 0 0 0 0 0 0 0 0 0 0 0 0 0 0 0 0 0 0 0 0 0 0 0 19.52587217553456 0 0 8.385678165411969 0 0 0 0 0 0 0 0 0 0 -8.619255327135386 1.8476827762986463 -0.8943543484208183 -6.8159848379891255 29.59560546933738 75.1383748363189 74.67668448645134 33.77060139239145 -0.04519110730050619 2.8468705339310736 23.437250349516916 7.63132420182974 0 0 0 0 0 0 0 0 0 0 0 0 0 0 0 0 0 0 0 0 0 0 0 0 0 0 0 0 0 0 0 0 0 0 0 0 0 0 0 0 0 0 0 0 0
0 -10.386017323533302 0 0 -90 0 0.47455056865536854 -0.9933824279699685 13.969803587090254 0.7144132639633732 6.517209376161326 3.886640863075053 2.3959397165843432 13.600138709677598 6.052985174169887 0 0 0 -13.83635004725888 -55.88867710078358 -13.96501122501976 -171.9082476072554 53.89469793473869 -167.74733058463178 -1.8278070857498423 18.67079535586416 -5.599626459011687 0 0 0 0 19.02027739712847 0 -0.6606442259505402 21.600027050769253 -0.3799992997727578 0 0 0 8.615746513576312 1.8479789763374102 0.8907658431622498 6.807779352629799 29.594476317929974 -75.15852491814239 -74.29172368383715 33.53916897745031 0.09141601646465312 -2.8513735774434754 23.436919075090522 -7.63582542954491 0 0 0 0 0 0 0 0 0 0 0 0 0 0 0 0 0 0 0 0 0 0 0 0 0 0 0 0 0 0 0 0 0 0 0 0 0 0 0 0 0 0 0 0 0 0 19.52587217553456 0 0 7.7719296352685445 0 0 0 0 0 0 0 0 0 0 -8.619255327135386 1.8476827762986463 -0.8943543484208183 -6.815983863052327 29.59560546933738 75.13837578534952 74.3568990545779 33.54014822651315 -0.08668399539374831 2.8468705339310736 23.437250349516916 7.63132420182974 0 0 0 0 0 0 0 0 0 0 0 0 0 0 0 0 0 0 0 0 0 0 0 0 0 0 0 0 0 0 0 0 0 0 0 0 0 0 0 0 0 0 0 0 0
0 -10.386017323533302 0 0 -90 0 0.47455056865536854 -0.9933824279699685 13.969803587090254 0.7144132639633732 6.517209376161326 3.886640863075053 2.3959397165843432 13.600138709677598 6.052985174169887 0 0 0 -13.83635004725888 -55.88867710078358 -13.96501122501976 -171.90824525851372 53.89470373019459 -167.7473281247712 -1.8278070857498423 18.67079535586416 -5.599626459011687 0 0 0 0 19.043479110808732 0 -0.653976831480272 21.41545723153427 -0.37540543784751773 0 0 0 8.615746513576312 1.8479796170008493 0.8907658431622498 6.807780327572355 29.594472390468876 -75.1585239690339 -74.11448461090177 33.42407174352757 0.11377902848442258 -2.851374042139937 23.436920936180485 -7.635825890691672 0 0 0 0 0 0 0 0 0 0 0 0 0 0 0 0 0 0 0 0 0 0 0 0 0 0 0 0 0 0 0 0 0 0 0 0 0 0 0 0 0 0 0 0 0 0 19.52587217553456 0 0 7.464645159769093 0 0 0 0 0 0 0 0 0 0 -8.619255327135386 1.8476827762986463 -0.8943543484208183 -6.815983863052327 29.59560546933738 75.13837578534952 74.19729230614507 33.424779630037165 -0.10682382951533057 2.8468705339310736 23.437250349516916 7.63132420182974 0 0 0 0 0 0 0 0 0 0 0 0 0 0 0 0 0 0 0 0 0 0 0 0 0 0 0 0 0 0 0 0 0 0 0 0 0 0 0 0 0 0 0 0 0
0 -10.386017323533302 0 0 -90 0 0.47455056865536854 -0.9933824279699685 13.969803587090254 0.7144132639633732 6.517209376161326 3.886640863075053 2.3959397165843432 13.60013783127389 6.052984300663472 0 0 0 -13.83635004725888 -55.88867710078358 -13.96501122501976 -171.90824300831304 53.8947095256513 -167.74732708077065 -1.8278070857498423 18.67079535586416 -5.599626459011687 0 0 0 0 19.066682261369426 0 -0.6473337249338396 21.23088766259401 -0.3708403962123705 0 0 0 8.615746513576312 1.847980044109809 0.8907658431622498 6.807780815043632 29.594470426738383 -75.1585239690339 -73.937534330871 33.30891440936627 0.13568631293666905 -2.8513742744881676 23.436920936180485 -7.635826351838433 0 0 0 0 0 0 0 0 0 0 0 0 0 0 0 0 0 0 0 0 0 0 0 0 0 0 0 0 0 0 0 0 0 0 0 0 0 0 0 0 0 0 0 0 0 0 19.52587217553456 0 0 7.1573600543775 0 0 0 0 0 0 0 0 0 0 -8.619255327135386 1.8476827762986463 -0.8943543484208183 -6.815986300394314 29.59560350558483 75.1383748363189 74.03794769096075 33.30936391458884 -0.12655234209470703 2.8468705339310736 23.437250349516916 7.63132420182974 0 0 0 0 0 0 0 0 0 0 0 0 0 0 0 0 0 0 0 0 0 0 0 0 0 0 0 0 0 0 0 0 0 0 0 0 0 0 0 0 0 0 0 0 0
0 -10.386017323533302 0 0 -90 0 0.47455056865536854 -0.9933824279699685 13.969803587090254 0.7144132639633732 6.517209376161326 3.886640863075053 2.3959397165843432 13.60013783127389 6.052984300663472 0 0 0 -13.83635593831008 -55.888683190439174 -13.965005307550003 -171.9082437255327 53.8947095256513 -167.74732708077065 -1.8278070857498423 18.67079535586416 -5.599626459011687 0 0 0 0 19.11309831227986 0 -0.6341112660168042 20.861546106442276 -0.36179177437218657 0 0 0 8.615746513576312 1.8479789763374102 0.8907658431622498 6.80777837768724 29.594476317929974 -75.15853156190215 -73.5842450246297 33.07827588720154 0.1781698178434678 -2.8513735774434754 23.436919075090522 -7.63582542954491 0 0 0 0 0 0 0 0 0 0 0 0 0 0 0 0 0 0 0 0 0 0 0 0 0 0 0 0 0 0 0 0 0 0 0 0 0 0 0 0 0 0 0 0 0 0 19.525875799013026 0 0 6.541998989194606 0 0 0 0 0 0 0 0 0 0 -8.619257016275972 1.8476827762986463 -0.8943544018029261 -6.815986300394314 29.59560350558483 75.1383748363189 73.71984122154232 33.078263660242925 -0.164809402983726 2.846870998630506 23.437250349516916 7.631325585287999 0 0 0 0 0 0 0 0 0 0 0 0 0 0 0 0 0 0 0 0 0 0 0 0 0 0 0 0 0 0 0 0 0 0 0 0 0 0 0 0 0 0 0 0 0
